<svg xmlns="http://www.w3.org/2000/svg" xmlns:xlink="http://www.w3.org/1999/xlink" preserveAspectRatio="xMidYMid meet" version="1.0" viewBox="0.0 0.0 454.8 487.9" zoomAndPan="magnify" style="fill: rgb(0, 0, 0);" original_string_length="3982"><g><g id="__id151_sc1bmj3q9"><rect height="447.56" rx="61.4" ry="61.4" width="447.56" x="3.6" y="36.72" style="fill: rgb(255, 255, 255);"/></g><g id="__id152_sc1bmj3q9"><path d="m3.6,161.8v-63.67c0-33.91,27.49-61.4,61.4-61.4h324.76c33.91,0,61.4,27.49,61.4,61.4v63.67H3.6Z" style="fill: rgb(197, 180, 234);"/></g><g id="__id153_sc1bmj3q9"><rect height="96" rx="16.9" ry="16.9" width="33.8" x="84.05" y="3.6" style="fill: rgb(255, 255, 255);"/></g><g id="__id154_sc1bmj3q9"><rect height="96" rx="16.9" ry="16.9" width="33.8" x="168.34" y="3.6" style="fill: rgb(255, 255, 255);"/></g><g id="__id155_sc1bmj3q9"><rect height="96" rx="16.9" ry="16.9" width="33.8" x="252.62" y="3.6" style="fill: rgb(255, 255, 255);"/></g><g id="__id156_sc1bmj3q9"><rect height="96" rx="16.9" ry="16.9" width="33.8" x="336.9" y="3.6" style="fill: rgb(255, 255, 255);"/></g><g id="__id157_sc1bmj3q9"><path d="m306.63,264.41c-7.06-9.61-16.63-15.36-28.46-16.87-15.78-2.02-29.48,2.73-40.95,13.71-4.42,4.23-7.67,9.27-9.26,15.26-.24.89-.39,1.8-.59,2.79-.19-.99-.35-1.9-.59-2.79-1.58-5.99-4.84-11.03-9.26-15.26-11.47-10.98-25.16-15.73-40.95-13.71-11.83,1.51-21.4,7.26-28.46,16.87-7.87,10.71-10.29,22.9-8.98,35.93,7.24,56.94,62.78,92.7,87.3,102.88.34.21,1.53.21,1.87,0,24.52-10.18,80.06-45.94,87.3-102.88,1.31-13.03-1.11-25.22-8.98-35.93Z" style="fill: rgb(197, 180, 234);"/></g><g id="__id158_sc1bmj3q9"><path d="m389.76,33.13h-15.45v-12.63c0-11.3-9.2-20.5-20.5-20.5s-20.5,9.2-20.5,20.5v12.63h-43.29v-12.63c0-11.3-9.2-20.5-20.5-20.5s-20.5,9.2-20.5,20.5v12.63h-43.29v-12.63c0-11.3-9.2-20.5-20.5-20.5s-20.5,9.2-20.5,20.5v12.63h-43.29v-12.63c0-11.3-9.2-20.5-20.5-20.5s-20.5,9.2-20.5,20.5v12.63h-15.45C29.16,33.13,0,62.29,0,98.13v324.76c0,35.84,29.16,65,65,65h324.76c35.84,0,65-29.16,65-65V98.13c0-35.84-29.16-65-65-65Zm57.81,389.76c0,31.87-25.93,57.81-57.81,57.81H65c-31.87,0-57.81-25.93-57.81-57.81V165.4h440.37v257.49ZM80.45,40.32v42.38c0,11.3,9.2,20.5,20.5,20.5s20.5-9.2,20.5-20.5v-42.38h43.29v42.38c0,11.3,9.2,20.5,20.5,20.5s20.5-9.2,20.5-20.5v-42.38h43.29v42.38c0,11.3,9.2,20.5,20.5,20.5s20.5-9.2,20.5-20.5v-42.38h43.29v42.38c0,11.3,9.2,20.5,20.5,20.5s20.5-9.2,20.5-20.5v-42.38h15.45c31.87,0,57.81,25.93,57.81,57.8v60.07H7.2v-60.07c0-31.87,25.93-57.8,57.81-57.8h15.45Zm7.2-7.2v-12.63c0-7.34,5.97-13.3,13.3-13.3s13.3,5.97,13.3,13.3v62.2c0,7.34-5.97,13.3-13.3,13.3s-13.3-5.97-13.3-13.3v-49.57Zm84.28,0v-12.63c0-7.34,5.97-13.3,13.3-13.3s13.3,5.97,13.3,13.3v62.2c0,7.34-5.97,13.3-13.3,13.3s-13.3-5.97-13.3-13.3v-49.57Zm84.28,0v-12.63c0-7.34,5.97-13.3,13.3-13.3s13.3,5.97,13.3,13.3v62.2c0,7.34-5.97,13.3-13.3,13.3s-13.3-5.97-13.3-13.3v-49.57Zm84.28,0v-12.63c0-7.34,5.97-13.3,13.3-13.3s13.3,5.97,13.3,13.3v62.2c0,7.34-5.97,13.3-13.3,13.3s-13.3-5.97-13.3-13.3v-49.57Z" style="fill: rgb(146, 139, 198);"/></g><g id="__id159_sc1bmj3q9"><path d="m225.02,406.52c.69.3,1.52.45,2.36.45s1.68-.15,2.36-.45c27.78-11.54,82.16-48.46,89.45-105.82,1.48-14.75-1.77-27.68-9.66-38.42-7.72-10.51-18.12-16.67-30.9-18.31-16.72-2.15-31.48,2.8-43.89,14.68-3.05,2.92-5.51,6.13-7.35,9.58-1.84-3.45-4.3-6.66-7.35-9.58-12.41-11.88-27.18-16.82-43.89-14.68-12.78,1.64-23.18,7.8-30.9,18.31-7.89,10.74-11.14,23.66-9.65,38.51,7.28,57.26,61.66,94.18,89.44,105.73Zm-9.97-142.67c4.16,3.98,6.94,8.55,8.27,13.58.18.66.3,1.34.44,2.06l.09.49c.33,1.69,1.81,2.92,3.53,2.92s3.21-1.23,3.53-2.92l.09-.5c.14-.72.26-1.4.44-2.06,1.33-5.03,4.11-9.6,8.27-13.58,10.76-10.3,23.55-14.58,38-12.74,10.75,1.38,19.51,6.57,26.02,15.44,6.9,9.39,9.61,20.33,8.31,33.34-6.83,53.72-58.1,88.64-84.66,99.82-26.57-11.18-77.83-46.11-84.65-99.73-1.32-13.11,1.4-24.05,8.3-33.44,6.51-8.87,15.27-14.06,26.02-15.44,2.18-.28,4.33-.42,6.43-.42,11.84,0,22.44,4.41,31.57,13.16Z" style="fill: rgb(146, 139, 198);"/></g></g></svg>