<svg xmlns="http://www.w3.org/2000/svg" xmlns:xlink="http://www.w3.org/1999/xlink" preserveAspectRatio="xMidYMid meet" version="1.0" viewBox="0.0 0.0 150.1 88.5" zoomAndPan="magnify" style="fill: rgb(0, 0, 0);" original_string_length="2023"><path d="M60.1,38.6c3.4-3.4,9-3.4,12.4,0l1.2,1.1l1.2-1.1c3.4-3.4,9-3.4,12.4,0c0.4,0.4,0.7,0.7,1,1.1L140,4.8H10.1 L60.1,38.6L60.1,38.6z" style="fill: none;"/><path d="M89.8,44.8c0,2.3-0.9,4.6-2.6,6.2L75.4,62.9c-0.5,0.5-1.1,0.7-1.7,0.7s-1.2-0.2-1.7-0.7L60.1,51 c-1.7-1.7-2.6-3.9-2.6-6.2c0-0.7,0.1-1.3,0.2-2L4.8,7.2v75.4c0,0.6,0.5,1,1,1h138.3c0.6,0,1-0.5,1-1V7.2L89.8,44.5 C89.8,44.6,89.8,44.7,89.8,44.8z" style="fill: none;"/><g id="__id210_s49qszbka"><path d="M148.8,2.3c0-0.1-0.1-0.2-0.2-0.3c-0.3-0.3-0.6-0.6-0.9-0.8c-0.4-0.2-0.8-0.3-1.2-0.3c0.4,0,0.9,0.1,1.2,0.3 c-1-0.8-2.2-1.2-3.6-1.2H5.9C4.5,0,3.3,0.5,2.3,1.2C2.1,1.3,1.9,1.5,1.8,1.7C1.7,1.8,1.5,1.9,1.4,2C0.5,3.1,0,4.4,0,5.9v76.7 c0,3.2,2.6,5.9,5.9,5.9h138.3c3.2,0,5.9-2.6,5.9-5.9V5.9C150,4.5,149.5,3.3,148.8,2.3z M147.9,5.4l-2.7,1.8v75.4c0,0.6-0.5,1-1,1 H5.9c-0.6,0-1-0.5-1-1V7.2L2.1,5.3l2.7,1.8V5.9c0-0.6,0.5-1,1-1h0.1c-0.6,0-1,0.5-1,1v1.3l52.9,35.6c0.3-1.6,1.1-3.1,2.3-4.2 l-50-33.7H10L4.8,1.3L10,4.8h130L88.2,39.7c1,1.4,1.5,3,1.6,4.8l55.3-37.3V5.9c0.1-0.6-0.4-1.1-1-1.1h0.1c0.6,0,1,0.5,1,1v1.3 L147.9,5.4c0.7-0.5,1-1.3,1.1-2C149,4.2,148.6,5,147.9,5.4z" style="fill: rgb(0, 0, 0);"/></g><g id="__id211_s49qszbka"><path d="M90.2,43.7c-0.1-1.8-0.6-3.4-1.6-4.9c-0.3-0.4-0.6-0.8-1-1.2c-3.5-3.5-9.2-3.5-12.7,0l-1.2,1.2l-1.2-1.2 c-3.5-3.5-9.2-3.5-12.7,0c0,0,0,0,0,0c-1.2,1.2-2,2.7-2.4,4.4c-0.1,0.6-0.2,1.3-0.2,2c0,2.4,0.9,4.7,2.6,6.4L72,62.5 c0.5,0.5,1.1,0.7,1.8,0.7c0.6,0,1.3-0.2,1.8-0.7l12.1-12.1c1.7-1.7,2.6-4,2.6-6.4C90.3,43.9,90.2,43.8,90.2,43.7z M73.7,57.3 L63.3,46.9c-0.4-0.4-0.7-0.9-0.9-1.5c-0.2-0.4-0.2-0.9-0.2-1.4c0-1.1,0.4-2.1,1.2-2.9c0.2-0.2,0.5-0.4,0.8-0.6 c0.6-0.4,1.3-0.6,2.1-0.6c1.1,0,2.1,0.4,2.9,1.2l2.9,2.9c1,1,2.5,1,3.5,0l2.9-2.9c1.6-1.6,4.1-1.6,5.7,0c0.1,0.1,0.2,0.3,0.4,0.4 c1.2,1.6,1.1,3.8-0.4,5.3l-2.9,2.9L73.7,57.3z" style="fill: rgb(146, 139, 198);"/></g></svg>